<svg width="42" height="43" viewBox="0 0 42 43" fill="none" xmlns="http://www.w3.org/2000/svg">
<rect x="1" y="1.41602" width="40" height="40" rx="20" fill="white" fill-opacity="0.06"/>
<rect x="0.5" y="0.916016" width="41" height="41" rx="20.5" stroke="white" stroke-opacity="0.2"/>
<g clip-path="url(#clip0_118_539)">
<path d="M20.9975 24.1278C22.4965 24.1278 23.7118 22.9126 23.7118 21.4135C23.7118 19.9144 22.4965 18.6992 20.9975 18.6992C19.4984 18.6992 18.2832 19.9144 18.2832 21.4135C18.2832 22.9126 19.4984 24.1278 20.9975 24.1278Z" fill="white"/>
<path d="M24.3905 13.2715H17.6048C14.9862 13.2715 12.8555 15.4029 12.8555 18.0222V24.8079C12.8555 27.4265 14.9869 29.5572 17.6061 29.5572H24.3919C27.0105 29.5572 29.1412 27.4258 29.1412 24.8065V18.0208C29.1412 15.4022 27.0098 13.2715 24.3905 13.2715ZM20.9983 25.4858C18.7529 25.4858 16.9269 23.6597 16.9269 21.4143C16.9269 19.1689 18.7529 17.3429 20.9983 17.3429C23.2437 17.3429 25.0698 19.1689 25.0698 21.4143C25.0698 23.6597 23.2437 25.4858 20.9983 25.4858ZM25.7483 17.3429C25.3738 17.3429 25.0698 17.0389 25.0698 16.6643C25.0698 16.2898 25.3738 15.9858 25.7483 15.9858C26.1229 15.9858 26.4269 16.2898 26.4269 16.6643C26.4269 17.0389 26.1229 17.3429 25.7483 17.3429Z" fill="white"/>
</g>
<defs>
<clipPath id="clip0_118_539">
<rect width="17.1429" height="17.1429" fill="white" transform="translate(12.4277 12.8438)"/>
</clipPath>
</defs>
</svg>
