<svg width="48" height="49" viewBox="0 0 48 49" fill="none" xmlns="http://www.w3.org/2000/svg">
<path d="M16.18 23.6776H6.8C6.96 14.3376 8.8 12.7976 14.54 9.39759C15.2 8.99759 15.42 8.15758 15.02 7.47758C14.9279 7.32014 14.8053 7.18261 14.6595 7.07302C14.5137 6.96344 14.3475 6.88399 14.1706 6.83931C13.9938 6.79463 13.8098 6.78561 13.6294 6.81279C13.449 6.83996 13.2758 6.90278 13.12 6.99758C6.36 10.9976 4 13.4376 4 25.0576V35.8376C4 39.2576 6.78 42.0176 10.18 42.0176H16.18C19.7 42.0176 22.36 39.3576 22.36 35.8376V29.8376C22.36 26.3376 19.7 23.6776 16.18 23.6776ZM37.818 23.6776H28.438C28.598 14.3376 30.438 12.7976 36.178 9.39759C36.838 8.99759 37.058 8.15758 36.658 7.47758C36.5638 7.31966 36.4393 7.1819 36.2916 7.07224C36.144 6.96257 35.9762 6.88316 35.7978 6.83856C35.6193 6.79395 35.4339 6.78504 35.252 6.81233C35.0701 6.83962 34.8955 6.90258 34.738 6.99758C27.978 10.9976 25.618 13.4376 25.618 25.0776V35.8576C25.618 39.2776 28.398 42.0376 31.798 42.0376H37.798C41.318 42.0376 43.978 39.3776 43.978 35.8576V29.8576C43.998 26.3376 41.338 23.6776 37.818 23.6776Z" fill="white"/>
</svg>
