<svg width="42" height="43" viewBox="0 0 42 43" fill="none" xmlns="http://www.w3.org/2000/svg">
<rect x="1" y="1.41602" width="40" height="40" rx="20" fill="white" fill-opacity="0.06"/>
<rect x="0.5" y="0.916016" width="41" height="41" rx="20.5" stroke="white" stroke-opacity="0.2"/>
<g clip-path="url(#clip0_118_549)">
<path d="M29.5357 14.6494C29.5219 14.5862 29.4916 14.5277 29.4478 14.48C29.4041 14.4322 29.3484 14.397 29.2866 14.3778C29.0615 14.3334 28.8286 14.3501 28.6121 14.426C28.6121 14.426 13.5923 19.8244 12.7346 20.4223C12.5493 20.5509 12.4877 20.6253 12.4571 20.7137C12.3087 21.1391 12.7705 21.3266 12.7705 21.3266L16.6416 22.5882C16.707 22.5995 16.7741 22.5954 16.8377 22.5764C17.7184 22.0203 25.6978 16.9814 26.1591 16.8121C26.2314 16.7901 26.285 16.8121 26.2732 16.8657C26.0846 17.5117 19.1937 23.6355 19.1557 23.673C19.1372 23.6882 19.1227 23.7076 19.1133 23.7296C19.104 23.7516 19.1002 23.7756 19.1021 23.7994L18.7421 27.5767C18.7421 27.5767 18.5911 28.7553 19.7675 27.5767C20.6016 26.7416 21.4019 26.0505 21.8032 25.7146C23.1344 26.6334 24.5669 27.6496 25.1846 28.1789C25.2883 28.2796 25.4111 28.3583 25.5459 28.4104C25.6806 28.4625 25.8245 28.4869 25.9689 28.4821C26.5582 28.4596 26.7189 27.8151 26.7189 27.8151C26.7189 27.8151 29.4553 16.8035 29.5475 15.3276C29.5561 15.183 29.5684 15.0903 29.5694 14.9912C29.5743 14.8763 29.563 14.7612 29.5357 14.6494Z" fill="white"/>
</g>
<defs>
<clipPath id="clip0_118_549">
<rect width="17.1429" height="17.1429" fill="white" transform="translate(12.4277 12.8438)"/>
</clipPath>
</defs>
</svg>
