<svg width="42" height="43" viewBox="0 0 42 43" fill="none" xmlns="http://www.w3.org/2000/svg">
<rect x="1" y="1.41602" width="40" height="40" rx="20" fill="white" fill-opacity="0.06"/>
<rect x="0.5" y="0.916016" width="41" height="41" rx="20.5" stroke="white" stroke-opacity="0.2"/>
<g clip-path="url(#clip0_118_535)">
<path d="M29.5714 16.1119C28.9286 16.3797 28.2857 16.594 27.5357 16.6476C28.2857 16.219 28.8214 15.5226 29.0893 14.719C28.3929 15.1476 27.6429 15.4155 26.8393 15.5762C26.1964 14.8797 25.2857 14.4512 24.3214 14.4512C22.3929 14.4512 20.7857 16.0047 20.7857 17.9869C20.7857 18.2547 20.8393 18.5226 20.8929 18.7905C17.9464 18.6297 15.375 17.2369 13.6071 15.094C13.2857 15.6297 13.125 16.219 13.125 16.8619C13.125 18.094 13.7679 19.1655 14.6786 19.8083C14.0893 19.8083 13.5536 19.6476 13.0714 19.3797V19.4333C13.0714 21.1476 14.3036 22.5405 15.9107 22.8619C15.5893 22.9155 15.3214 22.969 15 22.969C14.7857 22.969 14.5714 22.969 14.3571 22.9155C14.7857 24.3083 16.125 25.3262 17.625 25.3797C16.4464 26.344 14.8929 26.8797 13.2321 26.8797C12.9643 26.8797 12.6429 26.8797 12.375 26.8262C13.9821 27.7905 15.8571 28.3797 17.8393 28.3797C24.3214 28.3797 27.8571 23.0226 27.8571 18.3619C27.8571 18.2012 27.8571 18.0405 27.8571 17.9333C28.5 17.3976 29.0893 16.8083 29.5714 16.1119Z" fill="white"/>
</g>
<defs>
<clipPath id="clip0_118_535">
<rect width="17.1429" height="17.1429" fill="white" transform="translate(12.4277 12.8438)"/>
</clipPath>
</defs>
</svg>
