<svg width="24" height="24" viewBox="0 0 24 24" fill="none" xmlns="http://www.w3.org/2000/svg">
<g clip-path="url(#clip0_140_1167)">
<g clip-path="url(#clip1_140_1167)">
<g clip-path="url(#clip2_140_1167)">
<path d="M15.8405 0.179688H8.16047C3.91892 0.179688 0.480469 3.61814 0.480469 7.85969V15.755C0.480469 19.9966 3.91892 23.435 8.16047 23.435H15.8405C20.082 23.435 23.5205 19.9966 23.5205 15.755V7.85969C23.5205 3.61814 20.082 0.179688 15.8405 0.179688Z" fill="#7870FF"/>
<path d="M18.4935 6.6912C16.541 5.23388 14.6861 5.12979 14.3932 5.12979L14.1979 5.33798C16.4433 5.96254 17.7126 7.10757 17.8101 7.21167C14.2955 5.33798 10.3904 5.23388 6.87591 6.6912C6.38777 6.89939 6.09489 7.10757 5.99726 7.10757C6.19251 7.00348 7.36404 5.85845 9.80471 5.23388L9.60946 5.0257C9.60946 5.0257 7.65692 4.92161 5.50913 6.58711C5.50913 6.58711 3.36133 10.4386 3.36133 15.331C3.36133 15.331 4.63048 17.517 7.85218 17.621C7.85218 17.621 8.34031 16.9965 8.82845 16.372C7.16878 15.8514 6.38777 14.7065 6.29014 14.6023L6.87591 14.9146C8.6332 15.6432 10.4881 16.6842 13.9051 16.0597C14.5884 15.9555 15.3695 15.7474 16.0528 15.4351C16.541 15.1228 17.1268 14.9146 17.7126 14.4982C17.6149 14.6023 16.8339 15.7474 15.0766 16.2678C15.4671 16.8924 16.0528 17.5169 16.0528 17.5169C19.3722 17.4129 20.6413 15.2269 20.6413 15.4351C20.6413 10.6468 18.4935 6.6912 18.4935 6.6912ZM9.31658 13.7696C8.53557 13.7696 7.85218 13.0409 7.85218 12.1041C7.85218 11.1672 8.53557 10.4386 9.31658 10.4386C10.0976 10.4386 10.781 11.2713 10.781 12.1041C10.781 13.0409 10.0976 13.7696 9.31658 13.7696ZM14.6861 13.7696C13.9051 13.7696 13.2217 13.0409 13.2217 12.1041C13.2217 11.1672 13.9051 10.4386 14.6861 10.4386C15.5648 10.4386 16.2481 11.2713 16.2481 12.1041C16.2481 13.0409 15.5648 13.7696 14.6861 13.7696Z" fill="white"/>
</g>
</g>
</g>
<defs>
<clipPath id="clip0_140_1167">
<rect width="24" height="24" fill="white"/>
</clipPath>
<clipPath id="clip1_140_1167">
<rect width="24" height="24" fill="white"/>
</clipPath>
<clipPath id="clip2_140_1167">
<rect width="23.04" height="24" fill="white" transform="translate(0.480469)"/>
</clipPath>
</defs>
</svg>
