<svg width="25" height="24" viewBox="0 0 25 24" fill="none" xmlns="http://www.w3.org/2000/svg">
<g clip-path="url(#clip0_140_1147)">
<path d="M18.875 0H6.125C3.0184 0 0.5 2.5184 0.5 5.625V18.375C0.5 21.4816 3.0184 24 6.125 24H18.875C21.9816 24 24.5 21.4816 24.5 18.375V5.625C24.5 2.5184 21.9816 0 18.875 0Z" fill="#242938"/>
<path d="M4.40338 19.034H7.38631V11.7897L3.125 8.59375V17.7557C3.125 18.463 3.69819 19.034 4.40338 19.034Z" fill="#4285F4"/>
<path d="M17.6133 19.034H20.5963C21.3037 19.034 21.8747 18.4609 21.8747 17.7557V8.59375L17.6133 11.7897" fill="#34A853"/>
<path d="M17.6133 6.24988V11.7897L21.8747 8.59372V6.88897C21.8747 5.30806 20.07 4.40675 18.8065 5.35494" fill="#FBBC04"/>
<path d="M7.38672 11.7898V6.25009L12.5003 10.0853L17.6139 6.25V11.7898L12.5003 15.6251" fill="#EA4335"/>
<path d="M3.125 6.88906V8.59353L7.38631 11.7896V6.24987L6.19316 5.35494C4.92753 4.40675 3.125 5.30806 3.125 6.88906Z" fill="#C5221F"/>
</g>
<defs>
<clipPath id="clip0_140_1147">
<rect width="24" height="24" fill="white" transform="translate(0.5)"/>
</clipPath>
</defs>
</svg>
