<svg width="75" height="25" viewBox="0 0 75 25" fill="none" xmlns="http://www.w3.org/2000/svg">
<g clip-path="url(#clip0_59_754)">
<path d="M12 24.5C18.6274 24.5 24 19.1274 24 12.5C24 5.87258 18.6274 0.5 12 0.5C5.37258 0.5 0 5.87258 0 12.5C0 19.1274 5.37258 24.5 12 24.5Z" fill="#4C82ED"/>
<path d="M17.0433 8.03C15.6326 8.03 14.2466 8.91133 13.1773 9.838C13.4449 10.1302 13.7001 10.4335 13.942 10.7473C14.0566 10.8987 14.224 11.1033 14.4306 11.3353C15.2546 10.6127 16.2233 9.97267 17.0433 9.97267C18.4366 9.97267 19.57 11.106 19.57 12.4993C19.57 13.8927 18.4366 15.026 17.0433 15.026C15.4853 15.026 13.3873 12.722 12.7753 11.914C12.4753 11.5167 9.76129 8.03 6.95596 8.03C4.4913 8.03 2.48596 10.0353 2.48596 12.5C2.48596 14.9647 4.4913 16.9693 6.95596 16.9693C8.32596 16.9693 9.67129 16.1373 10.7273 15.24C10.4333 14.9235 10.1541 14.5936 9.89063 14.2513C9.7575 14.0786 9.61876 13.9103 9.47463 13.7467C8.67196 14.4347 7.7453 15.026 6.95596 15.026C5.56263 15.026 4.4293 13.8927 4.4293 12.4993C4.4293 11.106 5.56263 9.97267 6.95596 9.97267C8.51463 9.97267 10.612 12.2767 11.224 13.0847C11.524 13.482 14.238 16.9687 17.0433 16.9687C18.2283 16.9676 19.3645 16.4964 20.2024 15.6585C21.0404 14.8205 21.5116 13.6843 21.5126 12.4993C21.5116 11.3143 21.0404 10.1781 20.2024 9.34021C19.3645 8.50227 18.2283 8.03106 17.0433 8.03Z" fill="white"/>
</g>
<path d="M35.088 18.208C34.3947 18.208 33.776 18.1387 33.232 18C32.6987 17.8507 32.2453 17.632 31.872 17.344C31.5093 17.056 31.232 16.704 31.04 16.288C30.8587 15.8613 30.7733 15.3707 30.784 14.816L32.352 14.4C32.3307 14.944 32.432 15.392 32.656 15.744C32.88 16.096 33.2107 16.3627 33.648 16.544C34.0853 16.7147 34.592 16.8 35.168 16.8C35.712 16.8 36.176 16.7307 36.56 16.592C36.944 16.4533 37.232 16.2667 37.424 16.032C37.6267 15.7867 37.728 15.5093 37.728 15.2C37.728 14.848 37.6053 14.5707 37.36 14.368C37.1253 14.1547 36.8107 13.9893 36.416 13.872C36.0213 13.744 35.5787 13.6267 35.088 13.52C34.5867 13.4027 34.0907 13.2747 33.6 13.136C33.12 12.9973 32.6773 12.816 32.272 12.592C31.8773 12.368 31.5627 12.0747 31.328 11.712C31.0933 11.3493 30.976 10.8907 30.976 10.336C30.976 9.696 31.136 9.14667 31.456 8.688C31.776 8.22933 32.2293 7.872 32.816 7.616C33.4027 7.36 34.1067 7.232 34.928 7.232C35.728 7.232 36.432 7.36 37.04 7.616C37.6587 7.86133 38.144 8.224 38.496 8.704C38.848 9.17333 39.0293 9.75467 39.04 10.448L37.44 10.848C37.44 10.4853 37.376 10.1653 37.248 9.888C37.1307 9.61067 36.96 9.38133 36.736 9.2C36.5227 9.008 36.256 8.86933 35.936 8.784C35.6267 8.688 35.28 8.64 34.896 8.64C34.4373 8.64 34.0373 8.70933 33.696 8.848C33.3653 8.976 33.104 9.15733 32.912 9.392C32.7307 9.616 32.64 9.88267 32.64 10.192C32.64 10.576 32.7733 10.88 33.04 11.104C33.3173 11.3173 33.6747 11.488 34.112 11.616C34.56 11.744 35.04 11.8667 35.552 11.984C36.0107 12.0907 36.464 12.2133 36.912 12.352C37.3707 12.48 37.7867 12.656 38.16 12.88C38.544 13.104 38.848 13.3973 39.072 13.76C39.296 14.1227 39.408 14.5867 39.408 15.152C39.408 15.7707 39.248 16.3093 38.928 16.768C38.608 17.2267 38.1227 17.584 37.472 17.84C36.832 18.0853 36.0373 18.208 35.088 18.208ZM43.2385 20.784C42.8118 20.784 42.3852 20.736 41.9585 20.64C41.5318 20.5547 41.1372 20.416 40.7745 20.224C40.4225 20.0427 40.1238 19.8027 39.8785 19.504L40.5825 18.128C40.8598 18.4907 41.2332 18.7627 41.7025 18.944C42.1718 19.136 42.6625 19.232 43.1745 19.232C43.6758 19.232 44.0972 19.1467 44.4385 18.976C44.7798 18.8053 45.0518 18.56 45.2545 18.24C45.4572 17.92 45.6065 17.5413 45.7025 17.104C45.7985 16.6667 45.8518 16.1813 45.8625 15.648L46.0065 14.128H45.7025C45.5958 14.8853 45.4145 15.4987 45.1585 15.968C44.9132 16.4267 44.6038 16.7627 44.2305 16.976C43.8572 17.1787 43.4305 17.28 42.9505 17.28C42.4065 17.28 41.9585 17.1733 41.6065 16.96C41.2545 16.736 40.9825 16.4587 40.7905 16.128C40.5985 15.7867 40.4545 15.4293 40.3585 15.056C40.2732 14.672 40.2198 14.32 40.1985 14C40.1878 13.6693 40.1825 13.4133 40.1825 13.232V9.68H41.9105V12.736C41.9105 12.928 41.9158 13.1573 41.9265 13.424C41.9372 13.68 41.9638 13.9467 42.0065 14.224C42.0598 14.5013 42.1452 14.7573 42.2625 14.992C42.3798 15.2267 42.5398 15.4187 42.7425 15.568C42.9452 15.7067 43.2118 15.776 43.5425 15.776C43.8945 15.776 44.1932 15.68 44.4385 15.488C44.6838 15.2853 44.8865 15.0187 45.0465 14.688C45.2065 14.3573 45.3238 13.984 45.3985 13.568C45.4838 13.1413 45.5318 12.704 45.5425 12.256V9.68H47.2865V15.728C47.2865 16.112 47.2652 16.5013 47.2225 16.896C47.1905 17.2907 47.1212 17.6747 47.0145 18.048C46.9078 18.432 46.7585 18.784 46.5665 19.104C46.3745 19.4347 46.1292 19.728 45.8305 19.984C45.5318 20.24 45.1692 20.4373 44.7425 20.576C44.3265 20.7147 43.8252 20.784 43.2385 20.784ZM48.5739 18V12.96V9.68H50.0779L49.9819 12.368H50.2539C50.3925 11.6747 50.5952 11.1147 50.8619 10.688C51.1285 10.2613 51.4539 9.952 51.8379 9.76C52.2325 9.568 52.6752 9.472 53.1659 9.472C53.6672 9.472 54.0832 9.55733 54.4139 9.728C54.7552 9.89867 55.0272 10.128 55.2299 10.416C55.4432 10.704 55.6032 11.024 55.7099 11.376C55.8272 11.728 55.9072 12.0907 55.9499 12.464C55.9925 12.8373 56.0139 13.1947 56.0139 13.536V18H54.2699V13.76C54.2699 13.5467 54.2592 13.2853 54.2379 12.976C54.2165 12.656 54.1525 12.3467 54.0459 12.048C53.9392 11.7493 53.7739 11.4987 53.5499 11.296C53.3259 11.0827 53.0112 10.976 52.6059 10.976C52.1259 10.976 51.7152 11.1307 51.3739 11.44C51.0432 11.7387 50.7872 12.144 50.6059 12.656C50.4352 13.1573 50.3392 13.7173 50.3179 14.336V18H48.5739ZM62.9581 20.592V18.336C62.9581 18.0693 62.9741 17.7867 63.0061 17.488C63.0381 17.1893 63.0808 16.8853 63.1341 16.576C63.1875 16.256 63.2355 15.9467 63.2781 15.648H63.0061C62.8781 16.1173 62.6968 16.5493 62.4621 16.944C62.2381 17.3387 61.9341 17.648 61.5501 17.872C61.1768 18.096 60.7021 18.208 60.1261 18.208C59.4221 18.208 58.8195 18.0213 58.3181 17.648C57.8275 17.2747 57.4541 16.7627 57.1981 16.112C56.9421 15.4507 56.8141 14.704 56.8141 13.872C56.8141 12.9973 56.9421 12.2347 57.1981 11.584C57.4648 10.9227 57.8541 10.4053 58.3661 10.032C58.8888 9.65867 59.5181 9.472 60.2541 9.472C60.7768 9.472 61.2248 9.57333 61.5981 9.776C61.9715 9.968 62.2701 10.2507 62.4941 10.624C62.7288 10.9867 62.8995 11.4187 63.0061 11.92H63.2781L63.1981 9.696H64.7181V13.76V20.592H62.9581ZM60.6861 16.752C60.9955 16.752 61.2728 16.6933 61.5181 16.576C61.7635 16.448 61.9768 16.2827 62.1581 16.08C62.3395 15.8773 62.4888 15.6533 62.6061 15.408C62.7341 15.152 62.8248 14.9013 62.8781 14.656C62.9421 14.4 62.9741 14.1653 62.9741 13.952V13.728C62.9741 13.408 62.9208 13.088 62.8141 12.768C62.7181 12.448 62.5741 12.1547 62.3821 11.888C62.1901 11.6107 61.9501 11.3867 61.6621 11.216C61.3741 11.0453 61.0488 10.96 60.6861 10.96C60.2595 10.96 59.8915 11.0827 59.5821 11.328C59.2728 11.5627 59.0328 11.8933 58.8621 12.32C58.7021 12.7467 58.6221 13.2533 58.6221 13.84C58.6221 14.4053 58.7021 14.9067 58.8621 15.344C59.0221 15.7813 59.2515 16.128 59.5501 16.384C59.8595 16.6293 60.2381 16.752 60.6861 16.752ZM66.139 18V7.44H67.915V18H66.139ZM72.0919 18.176C71.6972 18.176 71.3452 18.1227 71.0359 18.016C70.7372 17.9093 70.4865 17.744 70.2839 17.52C70.0812 17.296 69.9265 17.0133 69.8199 16.672C69.7239 16.3307 69.6759 15.92 69.6759 15.44V11.104H68.4599L68.4759 9.696H69.2279C69.5265 9.696 69.7452 9.64267 69.8839 9.536C70.0225 9.42933 70.1079 9.25333 70.1399 9.008L70.3159 7.824H71.3399V9.68H73.6279V11.136H71.3399V15.392C71.3399 15.84 71.4465 16.1493 71.6599 16.32C71.8732 16.48 72.1452 16.56 72.4759 16.56C72.6785 16.56 72.8812 16.5387 73.0839 16.496C73.2865 16.4427 73.4839 16.3467 73.6759 16.208V17.888C73.3665 17.9947 73.0785 18.0693 72.8119 18.112C72.5452 18.1547 72.3052 18.176 72.0919 18.176Z" fill="white"/>
<defs>
<clipPath id="clip0_59_754">
<rect width="24" height="24" fill="white" transform="translate(0 0.5)"/>
</clipPath>
</defs>
</svg>
